<svg width="268" height="213" viewBox="0 0 268 213" fill="none" xmlns="http://www.w3.org/2000/svg">
<path fill-rule="evenodd" clip-rule="evenodd" d="M118.119 64.0553C101.92 66.2034 86.2868 56.0123 81.972 39.7153C77.6514 23.3961 86.1847 6.63592 101.313 0.318604C99.8696 0.510059 98.4212 0.799537 96.976 1.19145C79.3162 5.98049 68.8096 24.2517 73.5088 42.0013C78.2081 59.7509 96.3338 70.2575 113.994 65.4684C115.417 65.0825 116.793 64.609 118.119 64.0553Z" fill="#F7F7F7"/>
<path fill-rule="evenodd" clip-rule="evenodd" d="M149.881 64.054C166.08 66.2021 181.713 56.011 186.028 39.714C190.349 23.3948 181.815 6.63465 166.687 0.317323C168.13 0.508778 169.579 0.798257 171.024 1.19017C188.684 5.97921 199.19 24.2504 194.491 42C189.792 59.7496 171.666 70.2562 154.006 65.4672C152.583 65.0812 151.207 64.6077 149.881 64.054Z" fill="#F7F7F7"/>
<ellipse cx="133.602" cy="133.161" rx="19.9131" ry="10.8394" fill="#F7F7F7"/>
<ellipse cx="134" cy="72.9421" rx="43.4105" ry="43.759" fill="#FFBB00"/>
<path fill-rule="evenodd" clip-rule="evenodd" d="M166.768 0.278024C164.625 16.5933 150.771 29.183 134 29.183C117.229 29.183 103.375 16.5933 101.232 0.278015C101.042 1.72287 100.944 3.19694 100.944 4.69407C100.944 23.0968 115.744 38.0151 134 38.0151C152.256 38.0151 167.056 23.0968 167.056 4.69407C167.056 3.19693 166.958 1.72288 166.768 0.278024Z" fill="#F7F7F7"/>
<path fill-rule="evenodd" clip-rule="evenodd" d="M112.891 118.976C113.064 118.703 113.232 118.424 113.395 118.139C116.989 111.863 116.909 105.033 113.216 102.884C109.523 100.734 103.615 104.08 100.02 110.355C97.6554 114.484 96.881 118.853 97.6797 121.971C98.2523 124.791 99.9967 127.96 102.716 130.701C107.8 135.825 114.365 137.515 117.381 134.475C120.396 131.435 118.72 124.817 113.637 119.693C113.391 119.446 113.143 119.207 112.891 118.976Z" fill="#00FF72"/>
<path fill-rule="evenodd" clip-rule="evenodd" d="M154.312 118.976C154.139 118.703 153.971 118.424 153.808 118.139C150.214 111.863 150.294 105.033 153.987 102.884C157.68 100.734 163.588 104.08 167.183 110.355C169.547 114.484 170.322 118.852 169.524 121.97C168.951 124.79 167.207 127.959 164.487 130.701C159.403 135.825 152.838 137.515 149.822 134.475C146.807 131.435 148.483 124.817 153.566 119.693C153.812 119.446 154.06 119.207 154.312 118.976Z" fill="#00FF72"/>
<ellipse cx="133.602" cy="119.11" rx="9.55828" ry="9.63501" fill="#00DB62"/>
<path d="M30.06 190.62C30.06 192.276 31.248 193.104 33.624 193.104C36.024 193.104 37.224 192.36 37.224 190.872C37.224 190.08 36.816 189.432 36 188.928C35.184 188.424 34.188 188.004 33.012 187.668C31.86 187.332 30.696 186.948 29.52 186.516C28.368 186.06 27.384 185.364 26.568 184.428C25.752 183.468 25.344 182.28 25.344 180.864C25.344 174.84 29.22 171.828 36.972 171.828C39.804 171.828 41.94 172.368 43.38 173.448C44.844 174.504 45.576 175.98 45.576 177.876C45.576 178.572 45.48 179.244 45.288 179.892C45.12 180.516 44.94 180.96 44.748 181.224L44.46 181.656H38.088C38.616 181.104 38.88 180.408 38.88 179.568C38.88 178.008 37.86 177.228 35.82 177.228C33.252 177.228 31.968 178.044 31.968 179.676C31.968 180.492 32.376 181.14 33.192 181.62C34.008 182.1 34.992 182.484 36.144 182.772C37.32 183.036 38.496 183.372 39.672 183.78C40.848 184.188 41.844 184.872 42.66 185.832C43.476 186.768 43.884 187.992 43.884 189.504C43.884 192.552 42.972 194.82 41.148 196.308C39.324 197.772 36.516 198.504 32.724 198.504C28.932 198.504 26.34 197.832 24.948 196.488C23.916 195.48 23.4 194.088 23.4 192.312C23.4 191.64 23.472 190.908 23.616 190.116L23.724 189.54H30.204L30.132 189.972C30.084 190.212 30.06 190.428 30.06 190.62ZM59.1278 180.216C61.5758 180.216 63.2678 180.864 64.2038 182.16C64.8758 183.048 65.2118 184.176 65.2118 185.544C65.2118 186.096 65.1518 186.684 65.0318 187.308L64.3118 191.52C63.9038 193.8 63.0278 195.54 61.6838 196.74C60.3398 197.916 58.6598 198.504 56.6438 198.504C54.6278 198.504 53.2238 197.964 52.4318 196.884L50.4878 208.008H44.3677L49.1918 180.684H54.7358L54.5558 181.656C55.6838 180.696 57.2078 180.216 59.1278 180.216ZM55.3838 193.32C56.0558 193.32 56.6798 193.104 57.2558 192.672C57.8318 192.24 58.1918 191.592 58.3358 190.728L58.8038 188.028C58.8518 187.788 58.8758 187.488 58.8758 187.128C58.8758 186.768 58.7198 186.384 58.4078 185.976C58.0958 185.568 57.5558 185.364 56.7878 185.364C55.5398 185.364 54.7238 185.664 54.3398 186.264L53.2598 192.312C53.5958 192.984 54.3038 193.32 55.3838 193.32ZM78.1419 180.18C80.7339 180.18 82.6899 180.744 84.0099 181.872C85.0419 182.76 85.5579 183.996 85.5579 185.58C85.5579 186.108 85.4979 186.684 85.3779 187.308L84.6219 191.52C84.1659 194.064 83.0979 195.864 81.4179 196.92C79.7619 197.976 77.5419 198.504 74.7579 198.504C71.9739 198.504 69.9339 197.976 68.6379 196.92C67.6779 196.128 67.1979 194.94 67.1979 193.356C67.1979 192.804 67.2579 192.192 67.3779 191.52L68.1339 187.308C68.9739 182.556 72.3099 180.18 78.1419 180.18ZM79.1139 188.028C79.1619 187.788 79.1859 187.488 79.1859 187.128C79.1859 186.744 79.0299 186.324 78.7179 185.868C78.4059 185.412 77.8539 185.184 77.0619 185.184C76.2939 185.184 75.6459 185.448 75.1179 185.976C74.5899 186.48 74.2539 187.164 74.1099 188.028L73.6419 190.728C73.5939 190.968 73.5699 191.28 73.5699 191.664C73.5699 192.024 73.7259 192.42 74.0379 192.852C74.3499 193.284 74.8899 193.5 75.6579 193.5C76.4499 193.5 77.1099 193.236 77.6379 192.708C78.1659 192.156 78.5019 191.496 78.6459 190.728L79.1139 188.028ZM105.158 184.356C105.158 185.172 105.014 185.964 104.726 186.732C104.462 187.5 104.198 188.064 103.934 188.424L103.538 188.928H98.1023C98.7023 188.376 99.0023 187.692 99.0023 186.876C99.0023 186.444 98.8583 186.096 98.5703 185.832C98.3063 185.544 97.9343 185.4 97.4543 185.4C96.6383 185.4 95.9303 185.808 95.3303 186.624L93.3143 198H87.1943L90.2543 180.684H95.9423L95.5103 183.096C96.8783 181.152 98.5343 180.18 100.478 180.18C102.038 180.18 103.202 180.552 103.97 181.296C104.762 182.04 105.158 183.06 105.158 184.356ZM113.894 198.504C111.11 198.504 109.106 197.88 107.882 196.632C106.97 195.72 106.514 194.496 106.514 192.96C106.514 192.456 106.562 191.916 106.658 191.34L109.106 177.408L115.694 174.672L114.65 180.684H124.586L123.686 185.76H113.75L113.03 189.828C112.934 190.284 112.886 190.692 112.886 191.052C112.886 192.564 113.606 193.32 115.046 193.32C115.814 193.32 116.45 192.996 116.954 192.348C117.482 191.7 117.842 190.836 118.034 189.756H124.01C123.002 195.588 119.63 198.504 113.894 198.504ZM133.544 193.392C134.096 193.392 134.588 193.272 135.02 193.032L134.84 197.1C133.712 198.036 132.428 198.504 130.988 198.504C128.804 198.504 127.388 198 126.74 196.992C126.308 196.32 126.092 195.612 126.092 194.868C126.092 194.1 126.14 193.428 126.236 192.852L128.396 180.684H134.516L132.5 192.024C132.476 192.168 132.464 192.3 132.464 192.42C132.464 193.068 132.824 193.392 133.544 193.392ZM129.116 174.816C129.116 173.28 129.452 172.164 130.124 171.468C130.82 170.748 131.888 170.388 133.328 170.388C135.344 170.388 136.352 171.276 136.352 173.052C136.352 174.564 136.004 175.668 135.308 176.364C134.636 177.06 133.568 177.408 132.104 177.408C130.112 177.408 129.116 176.544 129.116 174.816ZM163.657 172.08L153.505 185.148L159.085 198H151.705L148.177 189.72L142.237 198H134.857L144.397 185.148L139.429 172.08H146.809L149.797 180.504L156.277 172.08H163.657ZM181.215 191.7L188.055 172.08H195.075L185.247 198H173.727L173.439 172.08H180.495L180.387 191.7H181.215ZM201.607 193.392C202.159 193.392 202.651 193.272 203.083 193.032L202.903 197.1C201.775 198.036 200.491 198.504 199.051 198.504C196.867 198.504 195.451 198 194.803 196.992C194.371 196.32 194.155 195.612 194.155 194.868C194.155 194.1 194.203 193.428 194.299 192.852L196.459 180.684H202.579L200.563 192.024C200.539 192.168 200.527 192.3 200.527 192.42C200.527 193.068 200.887 193.392 201.607 193.392ZM197.179 174.816C197.179 173.28 197.515 172.164 198.187 171.468C198.883 170.748 199.951 170.388 201.391 170.388C203.407 170.388 204.415 171.276 204.415 173.052C204.415 174.564 204.067 175.668 203.371 176.364C202.699 177.06 201.631 177.408 200.167 177.408C198.175 177.408 197.179 176.544 197.179 174.816ZM217.644 180.18C220.02 180.18 221.688 180.84 222.648 182.16C223.368 183.096 223.728 184.236 223.728 185.58C223.728 186.132 223.668 186.708 223.548 187.308L222.828 191.34C222.42 193.644 221.352 195.42 219.624 196.668C217.92 197.892 215.76 198.504 213.144 198.504C210.552 198.504 208.56 197.988 207.168 196.956C206.064 196.14 205.512 195 205.512 193.536C205.512 193.152 205.548 192.756 205.62 192.348L209.436 170.676H215.556L213.72 181.152C214.728 180.504 216.036 180.18 217.644 180.18ZM217.32 187.848C217.344 187.656 217.356 187.392 217.356 187.056C217.356 186.696 217.2 186.324 216.888 185.94C216.6 185.532 215.952 185.328 214.944 185.328C213.96 185.328 213.252 185.628 212.82 186.228L211.776 192.24C212.064 192.96 212.664 193.32 213.576 193.32C215.424 193.32 216.516 192.396 216.852 190.548L217.32 187.848ZM233.099 198.504C228.107 198.504 225.611 196.776 225.611 193.32C225.611 192.84 225.659 192.324 225.755 191.772L226.511 187.308C226.919 185.004 227.975 183.24 229.679 182.016C231.407 180.768 233.687 180.144 236.519 180.144C241.343 180.144 243.755 181.968 243.755 185.616C243.755 186.144 243.707 186.72 243.611 187.344L243.179 189.9H232.199L232.055 190.728C232.007 191.016 231.983 191.28 231.983 191.52C231.983 192.84 232.763 193.5 234.323 193.5C234.899 193.5 235.391 193.32 235.799 192.96C236.207 192.6 236.447 192.18 236.519 191.7L242.495 191.772C241.703 196.26 238.571 198.504 233.099 198.504ZM237.419 187.704C237.515 187.296 237.563 186.924 237.563 186.588C237.563 186.228 237.407 185.868 237.095 185.508C236.783 185.148 236.279 184.968 235.583 184.968C234.911 184.968 234.287 185.196 233.711 185.652C233.159 186.108 232.775 186.792 232.559 187.704H237.419Z" fill="#F7F7F7"/>
</svg>
