<svg width="323" height="236" viewBox="0 0 323 236" fill="none" xmlns="http://www.w3.org/2000/svg">
<path fill-rule="evenodd" clip-rule="evenodd" d="M145.619 64.0553C129.42 66.2033 113.787 56.0123 109.472 39.7153C105.151 23.396 113.685 6.63591 128.813 0.318589C127.37 0.510044 125.921 0.799522 124.476 1.19144C106.816 5.98047 96.3096 24.2516 101.009 42.0012C105.708 59.7508 123.834 70.2575 141.494 65.4684C142.917 65.0825 144.293 64.609 145.619 64.0553Z" fill="#1A1A1A"/>
<path fill-rule="evenodd" clip-rule="evenodd" d="M177.381 64.0541C193.58 66.2021 209.213 56.0111 213.528 39.714C217.849 23.3948 209.315 6.63468 194.187 0.317354C195.63 0.508809 197.079 0.798288 198.524 1.1902C216.184 5.97924 226.69 24.2504 221.991 42C217.292 59.7496 199.166 70.2562 181.506 65.4672C180.083 65.0813 178.707 64.6078 177.381 64.0541Z" fill="#1A1A1A"/>
<ellipse cx="161.102" cy="133.161" rx="19.9131" ry="10.8394" fill="#1A1A1A"/>
<ellipse cx="161.5" cy="72.9421" rx="43.4105" ry="43.759" fill="#FFBB00"/>
<path fill-rule="evenodd" clip-rule="evenodd" d="M194.268 0.278055C192.125 16.5933 178.271 29.1831 161.5 29.1831C144.729 29.1831 130.875 16.5933 128.732 0.278046C128.542 1.7229 128.444 3.19697 128.444 4.6941C128.444 23.0968 143.244 38.0152 161.5 38.0152C179.756 38.0152 194.556 23.0968 194.556 4.6941C194.556 3.19696 194.458 1.72291 194.268 0.278055Z" fill="#1A1A1A"/>
<path fill-rule="evenodd" clip-rule="evenodd" d="M140.391 118.976C140.564 118.703 140.732 118.424 140.895 118.139C144.489 111.863 144.409 105.033 140.716 102.884C137.023 100.734 131.115 104.08 127.52 110.355C125.155 114.484 124.381 118.853 125.18 121.971C125.752 124.791 127.497 127.96 130.216 130.701C135.3 135.825 141.865 137.515 144.881 134.475C147.896 131.435 146.22 124.817 141.137 119.693C140.891 119.446 140.643 119.207 140.391 118.976Z" fill="#00FF72"/>
<path fill-rule="evenodd" clip-rule="evenodd" d="M181.812 118.976C181.639 118.703 181.471 118.424 181.308 118.139C177.714 111.863 177.794 105.033 181.487 102.884C185.18 100.734 191.088 104.08 194.683 110.355C197.047 114.484 197.822 118.852 197.024 121.97C196.451 124.79 194.707 127.959 191.987 130.701C186.903 135.825 180.338 137.515 177.322 134.475C174.307 131.435 175.983 124.817 181.066 119.693C181.312 119.446 181.56 119.207 181.812 118.976Z" fill="#00FF72"/>
<ellipse cx="161.102" cy="119.11" rx="9.55828" ry="9.63501" fill="#00DB62"/>
<path d="M11.42 203.34C11.42 205.732 13.136 206.928 16.568 206.928C20.0347 206.928 21.768 205.853 21.768 203.704C21.768 202.56 21.1787 201.624 20 200.896C18.8213 200.168 17.3827 199.561 15.684 199.076C14.02 198.591 12.3387 198.036 10.64 197.412C8.976 196.753 7.55467 195.748 6.376 194.396C5.19733 193.009 4.608 191.293 4.608 189.248C4.608 180.547 10.2067 176.196 21.404 176.196C25.4947 176.196 28.58 176.976 30.66 178.536C32.7747 180.061 33.832 182.193 33.832 184.932C33.832 185.937 33.6933 186.908 33.416 187.844C33.1733 188.745 32.9133 189.387 32.636 189.768L32.22 190.392H23.016C23.7787 189.595 24.16 188.589 24.16 187.376C24.16 185.123 22.6867 183.996 19.74 183.996C16.0307 183.996 14.176 185.175 14.176 187.532C14.176 188.711 14.7653 189.647 15.944 190.34C17.1227 191.033 18.544 191.588 20.208 192.004C21.9067 192.385 23.6053 192.871 25.304 193.46C27.0027 194.049 28.4413 195.037 29.62 196.424C30.7987 197.776 31.388 199.544 31.388 201.728C31.388 206.131 30.0707 209.407 27.436 211.556C24.8013 213.671 20.7453 214.728 15.268 214.728C9.79067 214.728 6.04667 213.757 4.036 211.816C2.54533 210.36 1.8 208.349 1.8 205.784C1.8 204.813 1.904 203.756 2.112 202.612L2.268 201.78H11.628L11.524 202.404C11.4547 202.751 11.42 203.063 11.42 203.34ZM53.4068 188.312C56.9428 188.312 59.3868 189.248 60.7388 191.12C61.7094 192.403 62.1948 194.032 62.1948 196.008C62.1948 196.805 62.1081 197.655 61.9348 198.556L60.8948 204.64C60.3054 207.933 59.0401 210.447 57.0988 212.18C55.1574 213.879 52.7308 214.728 49.8188 214.728C46.9068 214.728 44.8788 213.948 43.7348 212.388L40.9268 228.456H32.0867L39.0548 188.988H47.0628L46.8028 190.392C48.4321 189.005 50.6334 188.312 53.4068 188.312ZM47.9988 207.24C48.9694 207.24 49.8708 206.928 50.7028 206.304C51.5348 205.68 52.0548 204.744 52.2628 203.496L52.9388 199.596C53.0081 199.249 53.0428 198.816 53.0428 198.296C53.0428 197.776 52.8174 197.221 52.3668 196.632C51.9161 196.043 51.1361 195.748 50.0268 195.748C48.2241 195.748 47.0454 196.181 46.4908 197.048L44.9308 205.784C45.4161 206.755 46.4388 207.24 47.9988 207.24ZM80.8717 188.26C84.6157 188.26 87.441 189.075 89.3477 190.704C90.8384 191.987 91.5837 193.772 91.5837 196.06C91.5837 196.823 91.497 197.655 91.3237 198.556L90.2317 204.64C89.573 208.315 88.0304 210.915 85.6037 212.44C83.2117 213.965 80.005 214.728 75.9837 214.728C71.9624 214.728 69.0157 213.965 67.1437 212.44C65.757 211.296 65.0637 209.58 65.0637 207.292C65.0637 206.495 65.1504 205.611 65.3237 204.64L66.4157 198.556C67.629 191.692 72.4477 188.26 80.8717 188.26ZM82.2757 199.596C82.345 199.249 82.3797 198.816 82.3797 198.296C82.3797 197.741 82.1544 197.135 81.7037 196.476C81.253 195.817 80.4557 195.488 79.3117 195.488C78.2024 195.488 77.2664 195.869 76.5037 196.632C75.741 197.36 75.2557 198.348 75.0477 199.596L74.3717 203.496C74.3024 203.843 74.2677 204.293 74.2677 204.848C74.2677 205.368 74.493 205.94 74.9437 206.564C75.3944 207.188 76.1744 207.5 77.2837 207.5C78.4277 207.5 79.381 207.119 80.1437 206.356C80.9064 205.559 81.3917 204.605 81.5997 203.496L82.2757 199.596ZM119.895 194.292C119.895 195.471 119.687 196.615 119.271 197.724C118.89 198.833 118.509 199.648 118.127 200.168L117.555 200.896H109.703C110.57 200.099 111.003 199.111 111.003 197.932C111.003 197.308 110.795 196.805 110.379 196.424C109.998 196.008 109.461 195.8 108.767 195.8C107.589 195.8 106.566 196.389 105.699 197.568L102.787 214H93.9473L98.3673 188.988H106.583L105.959 192.472C107.935 189.664 110.327 188.26 113.135 188.26C115.389 188.26 117.07 188.797 118.179 189.872C119.323 190.947 119.895 192.42 119.895 194.292ZM132.514 214.728C128.493 214.728 125.598 213.827 123.83 212.024C122.513 210.707 121.854 208.939 121.854 206.72C121.854 205.992 121.924 205.212 122.062 204.38L125.598 184.256L135.114 180.304L133.606 188.988H147.958L146.658 196.32H132.306L131.266 202.196C131.128 202.855 131.058 203.444 131.058 203.964C131.058 206.148 132.098 207.24 134.178 207.24C135.288 207.24 136.206 206.772 136.934 205.836C137.697 204.9 138.217 203.652 138.494 202.092H147.126C145.67 210.516 140.8 214.728 132.514 214.728ZM160.897 207.344C161.695 207.344 162.405 207.171 163.029 206.824L162.769 212.7C161.14 214.052 159.285 214.728 157.205 214.728C154.051 214.728 152.005 214 151.069 212.544C150.445 211.573 150.133 210.551 150.133 209.476C150.133 208.367 150.203 207.396 150.341 206.564L153.461 188.988H162.301L159.389 205.368C159.355 205.576 159.337 205.767 159.337 205.94C159.337 206.876 159.857 207.344 160.897 207.344ZM154.501 180.512C154.501 178.293 154.987 176.681 155.957 175.676C156.963 174.636 158.505 174.116 160.585 174.116C163.497 174.116 164.953 175.399 164.953 177.964C164.953 180.148 164.451 181.743 163.445 182.748C162.475 183.753 160.932 184.256 158.817 184.256C155.94 184.256 154.501 183.008 154.501 180.512ZM204.394 176.56L189.73 195.436L197.79 214H187.13L182.034 202.04L173.454 214H162.794L176.574 195.436L169.398 176.56H180.058L184.374 188.728L193.734 176.56H204.394ZM229.755 204.9L239.635 176.56H249.775L235.579 214H218.939L218.523 176.56H228.715L228.559 204.9H229.755ZM259.21 207.344C260.007 207.344 260.718 207.171 261.342 206.824L261.082 212.7C259.452 214.052 257.598 214.728 255.518 214.728C252.363 214.728 250.318 214 249.382 212.544C248.758 211.573 248.446 210.551 248.446 209.476C248.446 208.367 248.515 207.396 248.654 206.564L251.774 188.988H260.614L257.702 205.368C257.667 205.576 257.65 205.767 257.65 205.94C257.65 206.876 258.17 207.344 259.21 207.344ZM252.814 180.512C252.814 178.293 253.299 176.681 254.27 175.676C255.275 174.636 256.818 174.116 258.898 174.116C261.81 174.116 263.266 175.399 263.266 177.964C263.266 180.148 262.763 181.743 261.758 182.748C260.787 183.753 259.244 184.256 257.13 184.256C254.252 184.256 252.814 183.008 252.814 180.512ZM282.375 188.26C285.807 188.26 288.216 189.213 289.603 191.12C290.643 192.472 291.163 194.119 291.163 196.06C291.163 196.857 291.076 197.689 290.903 198.556L289.863 204.38C289.273 207.708 287.731 210.273 285.235 212.076C282.773 213.844 279.653 214.728 275.875 214.728C272.131 214.728 269.253 213.983 267.243 212.492C265.648 211.313 264.851 209.667 264.851 207.552C264.851 206.997 264.903 206.425 265.007 205.836L270.519 174.532H279.359L276.707 189.664C278.163 188.728 280.052 188.26 282.375 188.26ZM281.907 199.336C281.941 199.059 281.959 198.677 281.959 198.192C281.959 197.672 281.733 197.135 281.283 196.58C280.867 195.991 279.931 195.696 278.475 195.696C277.053 195.696 276.031 196.129 275.407 196.996L273.899 205.68C274.315 206.72 275.181 207.24 276.499 207.24C279.168 207.24 280.745 205.905 281.231 203.236L281.907 199.336ZM304.699 214.728C297.488 214.728 293.883 212.232 293.883 207.24C293.883 206.547 293.952 205.801 294.091 205.004L295.183 198.556C295.772 195.228 297.297 192.68 299.759 190.912C302.255 189.109 305.548 188.208 309.639 188.208C316.607 188.208 320.091 190.843 320.091 196.112C320.091 196.875 320.021 197.707 319.883 198.608L319.259 202.3H303.399L303.191 203.496C303.121 203.912 303.087 204.293 303.087 204.64C303.087 206.547 304.213 207.5 306.467 207.5C307.299 207.5 308.009 207.24 308.599 206.72C309.188 206.2 309.535 205.593 309.639 204.9L318.271 205.004C317.127 211.487 312.603 214.728 304.699 214.728ZM310.939 199.128C311.077 198.539 311.147 198.001 311.147 197.516C311.147 196.996 310.921 196.476 310.471 195.956C310.02 195.436 309.292 195.176 308.287 195.176C307.316 195.176 306.415 195.505 305.583 196.164C304.785 196.823 304.231 197.811 303.919 199.128H310.939Z" fill="#191919"/>
</svg>
